<!DOCTYPE svg PUBLIC "-//W3C//DTD SVG 1.1//EN" "http://www.w3.org/Graphics/SVG/1.1/DTD/svg11.dtd">

<!-- Uploaded to: SVG Repo, www.svgrepo.com, Transformed by: SVG Repo Mixer Tools -->
<svg width="64px" height="64px" viewBox="0 0 24 24" xmlns="http://www.w3.org/2000/svg" id="conversation-alt" class="icon glyph" fill="#000000">

<g id="SVGRepo_bgCarrier" stroke-width="0"/>

<g id="SVGRepo_tracerCarrier" stroke-linecap="round" stroke-linejoin="round"/>

<g id="SVGRepo_iconCarrier">

<path d="M16,2H4A2,2,0,0,0,2,4V17a1,1,0,0,0,.62.92A.84.84,0,0,0,3,18a1,1,0,0,0,.71-.29L7.41,14H16a2,2,0,0,0,2-2V4A2,2,0,0,0,16,2Z" style="fill:#231f20"/>

<path d="M21,22a1,1,0,0,1-.71-.29L16.59,18H8a1,1,0,0,1,0-2h9a1,1,0,0,1,.71.29L20,18.59V7H17a1,1,0,0,1,0-2h3a2,2,0,0,1,2,2V21a1,1,0,0,1-.62.92A.84.84,0,0,1,21,22Z" style="fill:#FFFFFF"/>

</g>

</svg>